<svg xmlns="http://www.w3.org/2000/svg" height="48" viewBox="0 -960 960 960" width="48"><path d="M691.454-172H300v-414l241-240 4.895 2.158Q551.5-819 554.25-812.5 557-806 557-800v3l-41 211h297q21.1 0 37.55 16.45Q867-553.1 867-532v41.16q0 5.101-.333 11.125-.334 6.024-2.667 10.715L756.947-215.082q-8.31 18.659-27.784 30.871Q709.689-172 691.454-172ZM322-194h373q10 0 22-6t18-20l110-260.5V-532q0-13-9.5-22.5T813-564H491l43.5-226L322-576.5V-194Zm0-382.5V-194v-382.5Zm-22-9.5v22H154v370h146v22H132v-414h168Z"/></svg>